<svg xmlns="http://www.w3.org/2000/svg" width="46" height="45" viewBox="0 0 46 45" fill="none">
<path d="M44.665 22.875C44.665 34.7386 34.826 44.375 22.665 44.375C10.5041 44.375 0.665039 34.7386 0.665039 22.875C0.665039 11.0114 10.5041 1.375 22.665 1.375C34.826 1.375 44.665 11.0114 44.665 22.875Z" fill="white" stroke="#1e2335"/>
<path d="M24.2382 22.9999L29.7436 17.4945C30.0856 17.1528 30.0856 16.5983 29.7436 16.2565C29.4015 15.9145 28.8476 15.9145 28.5055 16.2565L23.0002 21.7619L17.4945 16.2565C17.1525 15.9145 16.5986 15.9145 16.2565 16.2565C15.9145 16.5983 15.9145 17.1528 16.2565 17.4945L21.7622 22.9999L16.2565 28.5053C15.9145 28.847 15.9145 29.4015 16.2565 29.7433C16.4276 29.914 16.6517 29.9995 16.8755 29.9995C17.0994 29.9995 17.3235 29.914 17.4945 29.743L23.0002 24.2376L28.5055 29.743C28.6766 29.914 28.9007 29.9995 29.1245 29.9995C29.3484 29.9995 29.5725 29.914 29.7436 29.743C30.0856 29.4012 30.0856 28.8467 29.7436 28.505L24.2382 22.9999Z" fill="#1e2335"/>
</svg>